<svg width="14" height="14" viewBox="0 0 14 14" fill="none" xmlns="http://www.w3.org/2000/svg">
<path d="M7 14C5.13026 14 3.37236 13.2719 2.05025 11.9498C0.728134 10.6276 0 8.86974 0 7C0 5.13026 0.728134 3.37236 2.05025 2.05025C3.37236 0.728134 5.13026 0 7 0C8.86974 0 10.6276 0.728134 11.9498 2.05025C13.2719 3.37236 14 5.13026 14 7C14 8.86974 13.2719 10.6276 11.9498 11.9498C10.6276 13.2719 8.86974 14 7 14ZM9.88092 9.88092L9.1075 9.1075C7.94539 10.2696 6.05461 10.2696 4.8925 9.1075C3.73039 7.94539 3.73039 6.05461 4.8925 4.8925C6.05461 3.73039 7.94539 3.73039 9.1075 4.8925L9.88092 4.11908C8.29231 2.53058 5.70758 2.53058 4.11908 4.11908C2.53058 5.70769 2.53058 8.29242 4.11908 9.88092C4.91333 10.6752 5.95667 11.0723 7 11.0723C8.04323 11.0723 9.08667 10.6752 9.88092 9.88092Z" fill="#FFD700"/>
</svg>
