<svg width="20" height="21" viewBox="0 0 20 21" fill="none" xmlns="http://www.w3.org/2000/svg">
<path d="M17.0688 3.29692C13.1626 -0.733737 6.83056 -0.733737 2.92822 3.29692C-0.974121 7.32757 -0.978027 13.8613 2.92822 17.8879C6.83447 21.9145 13.1665 21.9185 17.0688 17.8879C18.9438 15.9532 19.9985 13.3292 19.9985 10.5924C19.9985 7.85558 18.9438 5.23163 17.0688 3.29692Z" fill="#FFD700"/>
<path fill-rule="evenodd" clip-rule="evenodd" d="M14 6.46495H6C5.45 6.46495 5 6.92928 5 7.4968V13.6879C5 14.2554 5.45 14.7197 6 14.7197H14C14.55 14.7197 15 14.2554 15 13.6879V7.4968C15 6.92928 14.55 6.46495 14 6.46495ZM14 8.52866L10 11.1083L6 8.52866V7.49681L10 10.0764L14 7.49681V8.52866Z" fill="#051C2C"/>
</svg>
