<svg width="30" height="30" viewBox="0 0 30 30" fill="none" xmlns="http://www.w3.org/2000/svg">
<path d="M22 22V16.8667C22 14.3778 21.4556 12.4333 18.5 12.4333C17.1 12.4333 16.1667 13.2111 15.7778 13.9111H15.7V12.6667H12.9778V22H15.8556V17.3333C15.8556 16.0889 16.0889 14.9222 17.5667 14.9222C19.0444 14.9222 19.0444 16.3222 19.0444 17.4111V22H22Z" fill="#FFD700"/>
<path d="M8.23333 12.6667H11.1111V22H8.23333V12.6667Z" fill="#FFD700"/>
<path d="M9.71111 8C8.77778 8 8 8.77778 8 9.71111C8 10.6444 8.77778 11.4222 9.71111 11.4222C10.6444 11.4222 11.4222 10.6444 11.4222 9.71111C11.3444 8.77778 10.6444 8 9.71111 8Z" fill="#FFD700"/>
</svg>
