<svg width="30" height="30" viewBox="0 0 30 30" fill="none" xmlns="http://www.w3.org/2000/svg">
<path d="M15.0099 11.4C13.0099 11.4 11.4099 13 11.4099 15C11.4099 17 13.0099 18.6 15.0099 18.6C17.0099 18.6 18.6099 17 18.6099 15C18.6099 13 17.0099 11.4 15.0099 11.4ZM15.0099 17.3C13.7099 17.3 12.7099 16.3 12.7099 15C12.7099 13.7 13.7099 12.7 15.0099 12.7C16.3099 12.7 17.3099 13.7 17.3099 15C17.3099 16.3 16.3099 17.3 15.0099 17.3Z" fill="white"/>
<path d="M17.9099 8C16.6099 8 13.4099 8 12.1099 8C11.0099 8.1 10.0099 8.4 9.20988 9.2C7.80988 10.5 8.00988 12.3 8.00988 15C8.00988 17.7 7.80988 19.5 9.20988 20.8C10.5099 22.2 12.4099 22 15.0099 22C17.7099 22 18.6099 22 19.6099 21.6C20.9099 21.1 21.9099 19.9 22.0099 17.9C22.0099 16.6 22.0099 13.4 22.0099 12.1C21.8099 9.7 20.5099 8.2 17.9099 8ZM19.9099 19.9C19.0099 20.8 17.8099 20.7 15.0099 20.7C12.1099 20.7 10.9099 20.7 10.1099 19.9C9.10988 18.9 9.30988 17.4 9.30988 15C9.30988 11.8 9.00988 9.5 12.2099 9.3C12.9099 9.3 13.2099 9.3 15.0099 9.3C18.1099 9.3 20.5099 9 20.7099 12.2C20.7099 12.9 20.7099 13.2 20.7099 15C20.7099 17.9 20.8099 19.1 19.9099 19.9Z" fill="white"/>
<path d="M18.7099 12.1C19.1517 12.1 19.5099 11.7418 19.5099 11.3C19.5099 10.8582 19.1517 10.5 18.7099 10.5C18.268 10.5 17.9099 10.8582 17.9099 11.3C17.9099 11.7418 18.268 12.1 18.7099 12.1Z" fill="white"/>
</svg>
