<svg width="180" height="180" viewBox="0 0 180 180" fill="none" xmlns="http://www.w3.org/2000/svg">
<path d="M123.387 64.5968H147.702V87.8226L145.887 89.0927C138.81 93.8105 129.919 93.9919 128.105 93.9919H127.923C123.569 93.9919 119.395 92.9032 115.766 91.0887L118.125 83.1048C121.028 84.7379 124.294 85.8266 127.923 85.8266H128.105C128.105 85.8266 134.274 85.8266 139.718 83.2863V72.5806H121.028L123.387 64.5968ZM109.415 68.2258C109.415 71.129 110.141 73.8508 111.593 76.3911L108.871 86.0081C104.335 81.4718 101.431 75.121 101.431 68.4073C101.431 56.6129 109.778 46.6331 121.028 43.7298L118.125 53.5282C113.044 56.6129 109.415 62.0564 109.415 68.2258ZM127.923 50.8065C127.742 50.8065 127.56 50.8065 127.198 50.8065L129.556 42.8226C135.181 43.1855 140.625 45.1814 144.98 48.8105L139.899 55.1613C136.633 52.2581 132.46 50.8065 127.923 50.8065ZM65.1411 56.0685L54.6169 92.7218H46.2702L50.4435 78.2056L60.2419 43.9113H70.2218L76.2097 64.7782L72.0363 79.4758L65.1411 56.0685ZM40.4637 43.9113L46.0887 63.5081L41.9153 78.2056L32.1169 44.0927H40.4637V43.9113ZM110.323 117.036C110.323 125.02 103.79 131.552 95.8065 131.552H82.1976L84.5564 123.387H95.9879C99.4355 123.387 102.339 120.484 102.339 117.036C102.339 113.589 99.4355 110.685 95.9879 110.685H88.3669L90.7258 102.52H96.1694C103.79 102.52 110.323 109.052 110.323 117.036ZM73.6694 102.52H82.0161L68.0444 151.149H59.6976L73.6694 102.52ZM84.9193 92.7218H76.5726L90.5444 44.0927H98.8911L84.9193 92.7218ZM90 171.835C44.8185 171.835 8.16532 135.181 8.16532 90C8.16532 44.8185 44.8185 8.16532 90 8.16532C135.181 8.16532 171.835 44.8185 171.835 90C171.835 135 135 171.835 90 171.835ZM90 0C40.2823 0 0 40.2823 0 90C0 139.536 40.2823 180 90 180C139.536 180 180 139.718 180 90C179.819 40.2823 139.536 0 90 0Z" fill="white"/>
<path d="M161.31 164.758C158.407 164.758 156.23 167.117 156.23 169.839C156.23 172.56 158.589 174.919 161.31 174.919C164.214 174.919 166.391 172.56 166.391 169.839C166.391 167.117 164.032 164.758 161.31 164.758ZM161.31 174.375C158.77 174.375 156.774 172.379 156.774 169.839C156.774 167.298 158.77 165.302 161.31 165.302C163.851 165.302 165.847 167.298 165.847 169.839C165.847 172.379 163.669 174.375 161.31 174.375Z" fill="white"/>
<path d="M159.133 167.298C159.496 167.298 159.859 167.117 160.403 167.117C161.129 167.117 161.492 167.298 161.855 167.48C162.036 167.661 162.218 168.024 162.218 168.387C162.218 169.113 161.855 169.476 161.31 169.657C161.673 169.839 161.855 170.202 162.036 170.746C162.218 171.472 162.399 172.016 162.399 172.198H161.673C161.673 172.016 161.492 171.653 161.31 170.927C161.129 170.202 160.948 170.02 160.222 170.02H159.677V172.379H158.952V167.298H159.133ZM160.403 169.657C161.129 169.657 161.492 169.294 161.492 168.75C161.492 168.024 160.948 167.843 160.222 167.843C159.859 167.843 159.677 167.843 159.496 167.843V169.657H160.403Z" fill="white"/>
</svg>
