<svg width="120" height="120" viewBox="0 0 120 120" fill="none" xmlns="http://www.w3.org/2000/svg">
<path d="M82.2581 43.0645H98.4678V58.5484L97.2581 59.3952C92.5403 62.5403 86.6129 62.6613 85.4032 62.6613H85.2823C82.379 62.6613 79.5968 61.9355 77.1774 60.7258L78.75 55.4032C80.6855 56.4919 82.8629 57.2177 85.2823 57.2177H85.4032C85.4032 57.2177 89.5161 57.2177 93.1452 55.5242V48.3871H80.6855L82.2581 43.0645ZM72.9436 45.4839C72.9436 47.4194 73.4274 49.2339 74.3952 50.9274L72.5807 57.3387C69.5565 54.3145 67.621 50.0806 67.621 45.6048C67.621 37.7419 73.1855 31.0887 80.6855 29.1532L78.75 35.6855C75.3629 37.7419 72.9436 41.371 72.9436 45.4839ZM85.2823 33.871C85.1613 33.871 85.0403 33.871 84.7984 33.871L86.371 28.5484C90.121 28.7903 93.75 30.121 96.6532 32.5403L93.2661 36.7742C91.0887 34.8387 88.3065 33.871 85.2823 33.871ZM43.4274 37.379L36.4113 61.8145H30.8468L33.629 52.1371L40.1613 29.2742H46.8145L50.8065 43.1855L48.0242 52.9839L43.4274 37.379ZM26.9758 29.2742L30.7258 42.3387L27.9436 52.1371L21.4113 29.3952H26.9758V29.2742ZM73.5484 78.0242C73.5484 83.3468 69.1936 87.7016 63.871 87.7016H54.7984L56.371 82.2581H63.9919C66.2903 82.2581 68.2258 80.3226 68.2258 78.0242C68.2258 75.7258 66.2903 73.7903 63.9919 73.7903H58.9113L60.4839 68.3468H64.1129C69.1936 68.3468 73.5484 72.7016 73.5484 78.0242ZM49.1129 68.3468H54.6774L45.3629 100.766H39.7984L49.1129 68.3468ZM56.6129 61.8145H51.0484L60.3629 29.3952H65.9274L56.6129 61.8145ZM60 114.556C29.879 114.556 5.44355 90.121 5.44355 60C5.44355 29.879 29.879 5.44355 60 5.44355C90.121 5.44355 114.556 29.879 114.556 60C114.556 90 90 114.556 60 114.556ZM60 0C26.8548 0 0 26.8548 0 60C0 93.0242 26.8548 120 60 120C93.0242 120 120 93.1452 120 60C119.879 26.8548 93.0242 0 60 0Z" fill="white"/>
<path d="M107.54 109.839C105.605 109.839 104.153 111.411 104.153 113.226C104.153 115.04 105.726 116.613 107.54 116.613C109.476 116.613 110.927 115.04 110.927 113.226C110.927 111.411 109.355 109.839 107.54 109.839ZM107.54 116.25C105.847 116.25 104.516 114.919 104.516 113.226C104.516 111.532 105.847 110.202 107.54 110.202C109.234 110.202 110.564 111.532 110.564 113.226C110.564 114.919 109.113 116.25 107.54 116.25Z" fill="white"/>
<path d="M106.089 111.532C106.331 111.532 106.573 111.411 106.935 111.411C107.419 111.411 107.661 111.532 107.903 111.653C108.024 111.774 108.145 112.016 108.145 112.258C108.145 112.742 107.903 112.984 107.54 113.105C107.782 113.226 107.903 113.468 108.024 113.831C108.145 114.315 108.266 114.677 108.266 114.798H107.782C107.782 114.677 107.661 114.435 107.54 113.952C107.419 113.468 107.298 113.347 106.815 113.347H106.452V114.919H105.968V111.532H106.089ZM106.935 113.105C107.419 113.105 107.661 112.863 107.661 112.5C107.661 112.016 107.298 111.895 106.815 111.895C106.573 111.895 106.452 111.895 106.331 111.895V113.105H106.935Z" fill="white"/>
</svg>
