<svg width="60" height="48" viewBox="0 0 60 48" fill="none" xmlns="http://www.w3.org/2000/svg">
<path d="M26.25 2.50008C26.9404 2.50008 27.5001 1.94039 27.5001 1.25004C27.5001 0.559687 26.9404 0 26.25 0C11.7595 0.0165234 0.0165805 11.7594 5.70838e-05 26.25V33.75C-0.0216226 41.366 6.1347 47.5576 13.7506 47.5793C21.3666 47.6009 27.5582 41.4446 27.5799 33.8287C27.6016 26.2127 21.4452 20.0211 13.8293 19.9994C9.33239 19.9867 5.11154 22.1673 2.52005 25.8425C2.7515 12.8971 13.3023 2.51847 26.25 2.50008Z" fill="#051C2C"/>
<path d="M46.2499 20.0003C41.7788 20.0038 37.5892 22.1835 35.02 25.8428C35.2516 12.8972 45.8024 2.5186 58.75 2.50032C59.4403 2.50032 60 1.94063 60 1.25028C60 0.559931 59.4403 0.000244141 58.75 0.000244141C44.2594 0.0167676 32.5165 11.7596 32.5 26.2502V33.7502C32.5 41.3441 38.6561 47.5002 46.2499 47.5002C53.8438 47.5002 59.9999 41.3441 59.9999 33.7502C59.9999 26.1564 53.8439 20.0003 46.2499 20.0003Z" fill="#051C2C"/>
</svg>
