<svg width="20" height="20" viewBox="0 0 20 20" fill="none" xmlns="http://www.w3.org/2000/svg">
<path d="M17.0688 2.92969C13.1626 -0.976562 6.83056 -0.976562 2.92822 2.92969C-0.974121 6.83594 -0.978027 13.168 2.92822 17.0703C6.83447 20.9727 13.1665 20.9766 17.0688 17.0703C18.9438 15.1953 19.9985 12.6523 19.9985 10C19.9985 7.34766 18.9438 4.80469 17.0688 2.92969ZM15.1431 13.9297L14.6352 14.4297C13.979 15.0938 13.0259 15.3672 12.1196 15.1484C11.2056 14.9023 10.3384 14.5156 9.54541 13.9961C8.81103 13.5273 8.13134 12.9766 7.51416 12.3594C6.94775 11.7969 6.43994 11.1797 5.99853 10.5195C5.51416 9.80859 5.13135 9.03125 4.85791 8.21094C4.54541 7.25 4.80322 6.19531 5.52588 5.48828L6.11963 4.89453C6.28369 4.73047 6.55322 4.72656 6.71728 4.89453L8.59228 6.76953C8.75634 6.93359 8.76025 7.20313 8.59228 7.36719L7.49072 8.46875C7.17431 8.78125 7.13525 9.27734 7.39697 9.63672C7.79541 10.1836 8.23681 10.6953 8.71338 11.1719C9.24853 11.707 9.82666 12.1953 10.4478 12.6289C10.8071 12.8789 11.2915 12.8359 11.6001 12.5273L12.6626 11.4492C12.8267 11.2852 13.0962 11.2812 13.2602 11.4492L15.1352 13.3281C15.3071 13.4961 15.3071 13.7656 15.1431 13.9297Z" fill="#FFD700"/>
</svg>
