<svg width="30" height="30" viewBox="0 0 30 30" fill="none" xmlns="http://www.w3.org/2000/svg">
<path d="M20.6 11.8C21.2 11.4 21.6 10.9 22 10.3C21.5 10.5 20.9 10.7 20.3 10.8C20.9 10.4 21.3 9.9 21.6 9.2C21 9.5 20.4 9.8 19.8 9.9C19.3 9.3 18.5 9 17.7 9C16.1 9 14.8 10.3 14.8 11.9C14.8 12.1 14.8 12.3 14.9 12.6C12.5 12.4 10.4 11.3 9 9.5C8.7 10 8.6 10.4 8.6 11C8.6 12 9.1 12.9 9.9 13.4C9.4 13.3 8.9 13.2 8.6 13C8.6 14.4 9.6 15.6 10.9 15.8C10.6 15.9 10.4 16 10.1 16C9.9 16 9.7 16 9.6 16C10 17.1 11 18 12.3 18C11.3 18.8 10.1 19.2 8.7 19.2C8.5 19.2 8.2 19.2 8 19.2C9.3 20 10.8 20.5 12.4 20.5C17.5 20.4 20.8 16.1 20.6 11.8Z" fill="white"/>
</svg>
